<?xml version="1.0" encoding="UTF-8" standalone="no"?>
<!DOCTYPE svg PUBLIC "-//W3C//DTD SVG 1.0//EN" "http://www.w3.org/TR/2001/PR-SVG-20010719/DTD/svg10.dtd">
<svg width="56cm" height="25cm" viewBox="-83 -8 1114 487" xmlns="http://www.w3.org/2000/svg" xmlns:xlink="http://www.w3.org/1999/xlink">
  <g>
    <rect style="fill: #ffffff" x="193.716" y="108.615" width="81.9" height="36"/>
    <rect style="fill: none; fill-opacity:0; stroke-width: 2; stroke: #000000" x="193.716" y="108.615" width="81.9" height="36"/>
    <text font-size="12.8" style="fill: #000000;text-anchor:middle;font-family:monospace;font-style:normal;font-weight:normal" x="234.666" y="130.615">viaggio</text>
  </g>
  <g>
    <polygon style="fill: #ffffff" points="187,247.17 233.95,219 280.9,247.17 233.95,275.34 "/>
    <polygon style="fill: none; fill-opacity:0; stroke-width: 2; stroke: #000000" points="187,247.17 233.95,219 280.9,247.17 233.95,275.34 "/>
    <text font-size="12.8" style="fill: #000000;text-anchor:end;font-family:monospace;font-style:normal;font-weight:normal" x="181" y="241.17"/>
    <text font-size="12.8" style="fill: #000000;text-anchor:start;font-family:monospace;font-style:normal;font-weight:normal" x="286.9" y="241.17"/>
    <text font-size="12.8" style="fill: #000000;text-anchor:middle;font-family:monospace;font-style:normal;font-weight:normal" x="233.95" y="251.17">bacheca</text>
  </g>
  <g>
    <rect style="fill: #ffffff" x="11" y="246" width="128.1" height="36"/>
    <rect style="fill: none; fill-opacity:0; stroke-width: 2; stroke: #000000" x="11" y="246" width="128.1" height="36"/>
    <text font-size="12.8" style="fill: #000000;text-anchor:middle;font-family:monospace;font-style:normal;font-weight:normal" x="75.05" y="268">messaggi_post</text>
  </g>
  <g>
    <polygon style="fill: #ffffff" points="130,336.1 188.5,301 247,336.1 188.5,371.2 "/>
    <polygon style="fill: none; fill-opacity:0; stroke-width: 2; stroke: #000000" points="130,336.1 188.5,301 247,336.1 188.5,371.2 "/>
    <text font-size="12.8" style="fill: #000000;text-anchor:end;font-family:monospace;font-style:normal;font-weight:normal" x="124" y="330.1"/>
    <text font-size="12.8" style="fill: #000000;text-anchor:start;font-family:monospace;font-style:normal;font-weight:normal" x="253" y="330.1"/>
    <text font-size="12.8" style="fill: #000000;text-anchor:middle;font-family:monospace;font-style:normal;font-weight:normal" x="188.5" y="340.1">risposta a</text>
  </g>
  <g>
    <polygon style="fill: #ffffff" points="350.604,179.039 405.254,146.249 459.904,179.039 405.254,211.829 "/>
    <polygon style="fill: none; fill-opacity:0; stroke-width: 2; stroke: #000000" points="350.604,179.039 405.254,146.249 459.904,179.039 405.254,211.829 "/>
    <text font-size="12.8" style="fill: #000000;text-anchor:end;font-family:monospace;font-style:normal;font-weight:normal" x="344.604" y="173.039"/>
    <text font-size="12.8" style="fill: #000000;text-anchor:start;font-family:monospace;font-style:normal;font-weight:normal" x="465.904" y="173.039"/>
    <text font-size="12.8" style="fill: #000000;text-anchor:middle;font-family:monospace;font-style:normal;font-weight:normal" x="405.254" y="183.039">partecipa</text>
  </g>
  <g>
    <polygon style="fill: #ffffff" points="354.14,83.2024 401.09,55.0324 448.04,83.2024 401.09,111.372 "/>
    <polygon style="fill: none; fill-opacity:0; stroke-width: 2; stroke: #000000" points="354.14,83.2024 401.09,55.0324 448.04,83.2024 401.09,111.372 "/>
    <text font-size="12.8" style="fill: #000000;text-anchor:end;font-family:monospace;font-style:normal;font-weight:normal" x="348.14" y="77.2024"/>
    <text font-size="12.8" style="fill: #000000;text-anchor:start;font-family:monospace;font-style:normal;font-weight:normal" x="454.04" y="77.2024"/>
    <text font-size="12.8" style="fill: #000000;text-anchor:middle;font-family:monospace;font-style:normal;font-weight:normal" x="401.09" y="87.2024">propone</text>
  </g>
  <line style="fill: none; fill-opacity:0; stroke-width: 2; stroke: #000000" x1="187" y1="247.17" x2="140.106" y2="254.22"/>
  <line style="fill: none; fill-opacity:0; stroke-width: 2; stroke: #000000" x1="276.621" y1="145.586" x2="350.604" y2="179.039"/>
  <line style="fill: none; fill-opacity:0; stroke-width: 2; stroke: #000000" x1="276.617" y1="111.371" x2="354.14" y2="83.2024"/>
  <line style="fill: none; fill-opacity:0; stroke-width: 2; stroke: #000000" x1="234.553" y1="145.599" x2="234.123" y2="217.995"/>
  <line style="fill: none; fill-opacity:0; stroke-width: 2; stroke: #000000" x1="89.4851" y1="282.94" x2="130" y2="336.1"/>
  <line style="fill: none; fill-opacity:0; stroke-width: 2; stroke: #000000" x1="139.1" y1="282" x2="188.5" y2="301"/>
  <g>
    <rect style="fill: #ffffff" x="723" y="120.894" width="74.2" height="36"/>
    <rect style="fill: none; fill-opacity:0; stroke-width: 2; stroke: #000000" x="723" y="120.894" width="74.2" height="36"/>
    <text font-size="12.8" style="fill: #000000;text-anchor:middle;font-family:monospace;font-style:normal;font-weight:normal" x="760.1" y="142.894">utente</text>
  </g>
  <line style="fill: none; fill-opacity:0; stroke-width: 2; stroke: #000000" x1="547" y1="83" x2="448.04" y2="83.2024"/>
  <line style="fill: none; fill-opacity:0; stroke-width: 2; stroke: #000000" x1="554" y1="180" x2="459.904" y2="179.039"/>
  <g>
    <rect style="fill: #ffffff" x="547" y="65" width="97.3" height="36"/>
    <rect style="fill: none; fill-opacity:0; stroke-width: 2; stroke: #000000" x="547" y="65" width="97.3" height="36"/>
    <text font-size="12.8" style="fill: #000000;text-anchor:middle;font-family:monospace;font-style:normal;font-weight:normal" x="595.65" y="87">guidatore</text>
  </g>
  <g>
    <rect style="fill: #ffffff" x="554" y="162" width="105" height="36"/>
    <rect style="fill: none; fill-opacity:0; stroke-width: 2; stroke: #000000" x="554" y="162" width="105" height="36"/>
    <text font-size="12.8" style="fill: #000000;text-anchor:middle;font-family:monospace;font-style:normal;font-weight:normal" x="606.5" y="184">passeggero</text>
  </g>
  <line style="fill: none; fill-opacity:0; stroke-width: 2; stroke: #000000" x1="659" y1="180" x2="692" y2="144.25"/>
  <g>
    <polygon style="fill: #ffffff" points="692,132.75 706,132.75 706,127 720,138.5 706,150 706,144.25 692,144.25 "/>
    <polygon style="fill: none; fill-opacity:0; stroke-width: 2; stroke: #000000" points="692,132.75 706,132.75 706,127 720,138.5 706,150 706,144.25 692,144.25 "/>
    <polygon style="fill: none; fill-opacity:0; stroke-width: 2; stroke: #000000" points="692,132.75 706,132.75 706,127 720,138.5 706,150 706,144.25 692,144.25 "/>
  </g>
  <line style="fill: none; fill-opacity:0; stroke-width: 2; stroke: #000000" x1="644.3" y1="83" x2="692" y2="144.25"/>
  <g>
    <rect style="fill: #ffffff" x="716.9" y="292" width="143.5" height="36"/>
    <rect style="fill: none; fill-opacity:0; stroke-width: 2; stroke: #000000" x="716.9" y="292" width="143.5" height="36"/>
    <text font-size="12.8" style="fill: #000000;text-anchor:middle;font-family:monospace;font-style:normal;font-weight:normal" x="788.65" y="314">messaggi_utente</text>
  </g>
  <g>
    <polygon style="fill: #ffffff" points="801.9,377.1 860.4,342 918.9,377.1 860.4,412.2 "/>
    <polygon style="fill: none; fill-opacity:0; stroke-width: 2; stroke: #000000" points="801.9,377.1 860.4,342 918.9,377.1 860.4,412.2 "/>
    <text font-size="12.8" style="fill: #000000;text-anchor:end;font-family:monospace;font-style:normal;font-weight:normal" x="795.9" y="371.1"/>
    <text font-size="12.8" style="fill: #000000;text-anchor:start;font-family:monospace;font-style:normal;font-weight:normal" x="924.9" y="371.1"/>
    <text font-size="12.8" style="fill: #000000;text-anchor:middle;font-family:monospace;font-style:normal;font-weight:normal" x="860.4" y="381.1">risposta a</text>
  </g>
  <line style="fill: none; fill-opacity:0; stroke-width: 2; stroke: #000000" x1="792.39" y1="328.937" x2="801.9" y2="377.1"/>
  <line style="fill: none; fill-opacity:0; stroke-width: 2; stroke: #000000" x1="860.4" y1="328" x2="860.4" y2="342"/>
  <g>
    <polygon style="fill: #ffffff" points="689,225.03 759.05,183 829.1,225.03 759.05,267.06 "/>
    <polygon style="fill: none; fill-opacity:0; stroke-width: 2; stroke: #000000" points="689,225.03 759.05,183 829.1,225.03 759.05,267.06 "/>
    <text font-size="12.8" style="fill: #000000;text-anchor:end;font-family:monospace;font-style:normal;font-weight:normal" x="683" y="219.03"/>
    <text font-size="12.8" style="fill: #000000;text-anchor:start;font-family:monospace;font-style:normal;font-weight:normal" x="835.1" y="219.03"/>
    <text font-size="12.8" style="fill: #000000;text-anchor:middle;font-family:monospace;font-style:normal;font-weight:normal" x="759.05" y="229.03">messaggistica</text>
  </g>
  <line style="fill: none; fill-opacity:0; stroke-width: 2; stroke: #000000" x1="759.869" y1="157.82" x2="759.575" y2="181.993"/>
  <line style="fill: none; fill-opacity:0; stroke-width: 2; stroke: #000000" x1="759.05" y1="267.06" x2="775.548" y2="290.994"/>
  <g>
    <polygon style="fill: #ffffff" points="466,304.1 524.5,269 583,304.1 524.5,339.2 "/>
    <polygon style="fill: none; fill-opacity:0; stroke-width: 2; stroke: #000000" points="466,304.1 524.5,269 583,304.1 524.5,339.2 "/>
    <text font-size="12.8" style="fill: #000000;text-anchor:end;font-family:monospace;font-style:normal;font-weight:normal" x="460" y="298.1"/>
    <text font-size="12.8" style="fill: #000000;text-anchor:start;font-family:monospace;font-style:normal;font-weight:normal" x="589" y="298.1"/>
    <text font-size="12.8" style="fill: #000000;text-anchor:middle;font-family:monospace;font-style:normal;font-weight:normal" x="524.5" y="308.1">recensisce</text>
  </g>
  <line style="fill: none; fill-opacity:0; stroke-width: 2; stroke: #000000" x1="259.417" y1="145.605" x2="466" y2="304.1"/>
  <line style="fill: none; fill-opacity:0; stroke-width: 2; stroke: #000000" x1="723" y1="156.894" x2="583" y2="304.1"/>
  <g>
    <rect style="fill: #ffffff" x="474" y="395" width="105" height="36"/>
    <rect style="fill: none; fill-opacity:0; stroke-width: 2; stroke: #000000" x="474" y="395" width="105" height="36"/>
    <text font-size="12.8" style="fill: #000000;text-anchor:middle;font-family:monospace;font-style:normal;font-weight:normal" x="526.5" y="417">recensione</text>
  </g>
  <line style="fill: none; fill-opacity:0; stroke-width: 2; stroke: #000000" x1="525.163" y1="340.178" x2="526.151" y2="394.004"/>
  <g>
    <rect style="fill: #ffffff" x="-48.75" y="109" width="66.5" height="36"/>
    <rect style="fill: none; fill-opacity:0; stroke-width: 2; stroke: #000000" x="-48.75" y="109" width="66.5" height="36"/>
    <text font-size="12.8" style="fill: #000000;text-anchor:middle;font-family:monospace;font-style:normal;font-weight:normal" x="-15.5" y="131">luogo</text>
  </g>
  <g>
    <polygon style="fill: #ffffff" points="55.25,126.55 94.5,103 133.75,126.55 94.5,150.1 "/>
    <polygon style="fill: none; fill-opacity:0; stroke-width: 2; stroke: #000000" points="55.25,126.55 94.5,103 133.75,126.55 94.5,150.1 "/>
    <text font-size="12.8" style="fill: #000000;text-anchor:end;font-family:monospace;font-style:normal;font-weight:normal" x="49.25" y="120.55"/>
    <text font-size="12.8" style="fill: #000000;text-anchor:start;font-family:monospace;font-style:normal;font-weight:normal" x="139.75" y="120.55"/>
    <text font-size="12.8" style="fill: #000000;text-anchor:middle;font-family:monospace;font-style:normal;font-weight:normal" x="94.5" y="130.55">tappa</text>
  </g>
  <line style="fill: none; fill-opacity:0; stroke-width: 2; stroke: #000000" x1="193.716" y1="126.615" x2="134.734" y2="126.576"/>
  <line style="fill: none; fill-opacity:0; stroke-width: 2; stroke: #000000" x1="54.2419" y1="126.786" x2="17.75" y2="127"/>
  <g>
    <line style="fill: none; fill-opacity:0; stroke-width: 2; stroke: #000000" x1="246.576" y1="107.611" x2="262.408" y2="82.3496"/>
    <path style="fill: #000000" d="M 262.408 82.3496 C 264.526,83.6772 265.317,87.1232 263.989,89.2415 C 262.662,91.3599 259.216,92.1506 257.098,90.823 C 254.979,89.4954 254.188,86.0494 255.516,83.9311 C 256.844,81.8127 260.29,81.022 262.408,82.3496z"/>
    <path style="fill: none; fill-opacity:0; stroke-width: 2; stroke: #000000" d="M 262.408 82.3496 C 264.526,83.6772 265.317,87.1232 263.989,89.2415 C 262.662,91.3599 259.216,92.1506 257.098,90.823 C 254.979,89.4954 254.188,86.0494 255.516,83.9311 C 256.844,81.8127 260.29,81.022 262.408,82.3496"/>
  </g>
  <text font-size="12.8" style="fill: #000000;text-anchor:start;font-family:sans-serif;font-style:normal;font-weight:normal" x="263.742" y="77.6828">
    <tspan x="263.742" y="77.6828">data</tspan>
  </text>
  <g>
    <line style="fill: none; fill-opacity:0; stroke-width: 2; stroke: #000000" x1="94.5" y1="103" x2="63.7416" y2="81.0162"/>
    <path style="fill: #000000" d="M 63.7416 81.0162 C 65.1953,78.9823 68.6829,78.4021 70.7168,79.8558 C 72.7507,81.3094 73.3309,84.797 71.8772,86.8309 C 70.4236,88.8649 66.936,89.4451 64.902,87.9914 C 62.8681,86.5377 62.2879,83.0501 63.7416,81.0162z"/>
    <path style="fill: none; fill-opacity:0; stroke-width: 2; stroke: #000000" d="M 63.7416 81.0162 C 65.1953,78.9823 68.6829,78.4021 70.7168,79.8558 C 72.7507,81.3094 73.3309,84.797 71.8772,86.8309 C 70.4236,88.8649 66.936,89.4451 64.902,87.9914 C 62.8681,86.5377 62.2879,83.0501 63.7416,81.0162"/>
  </g>
  <text font-size="12.8" style="fill: #000000;text-anchor:start;font-family:sans-serif;font-style:normal;font-weight:normal" x="51.7416" y="75.6828">
    <tspan x="51.7416" y="75.6828">orario</tspan>
  </text>
  <g>
    <line style="fill: none; fill-opacity:0; stroke-width: 2; stroke: #000000" x1="-5.47788" y1="108.004" x2="8.40834" y2="81.6828"/>
    <path style="fill: #000000" d="M 8.40834 81.6828 C 10.6195,82.8494 11.6641,86.227 10.4975,88.4382 C 9.33098,90.6493 5.95328,91.6939 3.74214,90.5274 C 1.53099,89.3608 0.4864,85.9831 1.65295,83.772 C 2.8195,81.5608 6.1972,80.5162 8.40834,81.6828z"/>
    <path style="fill: none; fill-opacity:0; stroke-width: 2; stroke: #000000" d="M 8.40834 81.6828 C 10.6195,82.8494 11.6641,86.227 10.4975,88.4382 C 9.33098,90.6493 5.95328,91.6939 3.74214,90.5274 C 1.53099,89.3608 0.4864,85.9831 1.65295,83.772 C 2.8195,81.5608 6.1972,80.5162 8.40834,81.6828"/>
  </g>
  <text font-size="12.8" style="fill: #000000;text-anchor:start;font-family:sans-serif;font-style:normal;font-weight:normal" x="2.40834" y="77.6828">
    <tspan x="2.40834" y="77.6828">città</tspan>
  </text>
  <g>
    <line style="fill: none; fill-opacity:0; stroke-width: 2; stroke: #000000" x1="-31.894" y1="108.01" x2="-56.925" y2="79.0162"/>
    <path style="fill: #000000" d="M -56.925 79.0162 C -55.0326,77.3825 -51.5066,77.6412 -49.8729,79.5335 C -48.2392,81.4259 -48.4978,84.9519 -50.3902,86.5856 C -52.2826,88.2193 -55.8086,87.9607 -57.4423,86.0683 C -59.076,84.176 -58.8174,80.6499 -56.925,79.0162z"/>
    <path style="fill: none; fill-opacity:0; stroke-width: 2; stroke: #000000" d="M -56.925 79.0162 C -55.0326,77.3825 -51.5066,77.6412 -49.8729,79.5335 C -48.2392,81.4259 -48.4978,84.9519 -50.3902,86.5856 C -52.2826,88.2193 -55.8086,87.9607 -57.4423,86.0683 C -59.076,84.176 -58.8174,80.6499 -56.925,79.0162"/>
  </g>
  <text font-size="12.8" style="fill: #000000;text-anchor:start;font-family:sans-serif;font-style:normal;font-weight:normal" x="-77.5916" y="75.6828">
    <tspan x="-77.5916" y="75.6828">provincia</tspan>
  </text>
  <g>
    <line style="fill: none; fill-opacity:0; stroke-width: 2; stroke: #000000" x1="-37.6984" y1="146.003" x2="-71.5916" y2="175.016"/>
    <path style="fill: #000000" d="M -71.5916 175.016 C -73.2174,173.117 -72.9439,169.592 -71.0448,167.966 C -69.1456,166.341 -65.6206,166.614 -63.9949,168.513 C -62.3691,170.412 -62.6425,173.937 -64.5417,175.563 C -66.4409,177.189 -69.9658,176.915 -71.5916,175.016z"/>
    <path style="fill: none; fill-opacity:0; stroke-width: 2; stroke: #000000" d="M -71.5916 175.016 C -73.2174,173.117 -72.9439,169.592 -71.0448,167.966 C -69.1456,166.341 -65.6206,166.614 -63.9949,168.513 C -62.3691,170.412 -62.6425,173.937 -64.5417,175.563 C -66.4409,177.189 -69.9658,176.915 -71.5916,175.016"/>
  </g>
  <text font-size="12.8" style="fill: #000000;text-anchor:start;font-family:sans-serif;font-style:normal;font-weight:normal" x="-82.2584" y="186.35">
    <tspan x="-82.2584" y="186.35">indirizzo</tspan>
  </text>
  <g>
    <line style="fill: none; fill-opacity:0; stroke-width: 2; stroke: #000000" x1="94.5" y1="103" x2="124.408" y2="83.6828"/>
    <path style="fill: #000000" d="M 124.408 83.6828 C 125.765,85.7829 125.021,89.2393 122.921,90.5957 C 120.821,91.9521 117.365,91.2084 116.008,89.1083 C 114.652,87.0083 115.395,83.5518 117.496,82.1955 C 119.596,80.8391 123.052,81.5827 124.408,83.6828z"/>
    <path style="fill: none; fill-opacity:0; stroke-width: 2; stroke: #000000" d="M 124.408 83.6828 C 125.765,85.7829 125.021,89.2393 122.921,90.5957 C 120.821,91.9521 117.365,91.2084 116.008,89.1083 C 114.652,87.0083 115.395,83.5518 117.496,82.1955 C 119.596,80.8391 123.052,81.5827 124.408,83.6828"/>
  </g>
  <text font-size="12.8" style="fill: #000000;text-anchor:start;font-family:sans-serif;font-style:normal;font-weight:normal" x="116.408" y="75.6828">
    <tspan x="116.408" y="75.6828">distanza</tspan>
  </text>
  <g>
    <line style="fill: none; fill-opacity:0; stroke-width: 2; stroke: #000000" x1="76.5768" y1="282.989" x2="79.7416" y2="322.35"/>
    <path style="fill: #000000" d="M 79.7416 322.35 C 77.2496,322.55 74.5573,320.259 74.357,317.767 C 74.1566,315.275 76.4482,312.583 78.9401,312.382 C 81.4321,312.182 84.1244,314.473 84.3248,316.965 C 84.5252,319.457 82.2336,322.15 79.7416,322.35z"/>
    <path style="fill: none; fill-opacity:0; stroke-width: 2; stroke: #000000" d="M 79.7416 322.35 C 77.2496,322.55 74.5573,320.259 74.357,317.767 C 74.1566,315.275 76.4482,312.583 78.9401,312.382 C 81.4321,312.182 84.1244,314.473 84.3248,316.965 C 84.5252,319.457 82.2336,322.15 79.7416,322.35"/>
  </g>
  <text font-size="12.8" style="fill: #000000;text-anchor:start;font-family:sans-serif;font-style:normal;font-weight:normal" x="63.075" y="341.016">
    <tspan x="63.075" y="341.016">mittente</tspan>
  </text>
  <g>
    <line style="fill: none; fill-opacity:0; stroke-width: 2; stroke: #000000" x1="800.408" y1="128.35" x2="835.742" y2="109.683"/>
    <path style="fill: #000000" d="M 835.742 109.683 C 836.91,111.893 835.867,115.272 833.657,116.439 C 831.446,117.607 828.068,116.564 826.9,114.354 C 825.732,112.143 826.775,108.765 828.985,107.597 C 831.196,106.43 834.574,107.472 835.742,109.683z"/>
    <path style="fill: none; fill-opacity:0; stroke-width: 2; stroke: #000000" d="M 835.742 109.683 C 836.91,111.893 835.867,115.272 833.657,116.439 C 831.446,117.607 828.068,116.564 826.9,114.354 C 825.732,112.143 826.775,108.765 828.985,107.597 C 831.196,106.43 834.574,107.472 835.742,109.683"/>
  </g>
  <text font-size="12.8" style="fill: #000000;text-anchor:start;font-family:sans-serif;font-style:normal;font-weight:normal" x="839.742" y="95.6828">
    <tspan x="839.742" y="95.6828">username??</tspan>
    <tspan x="839.742" y="111.683">nome</tspan>
    <tspan x="839.742" y="127.683">passwd coded</tspan>
    <tspan x="839.742" y="143.683">cognome</tspan>
    <tspan x="839.742" y="159.683">sesso</tspan>
    <tspan x="839.742" y="175.683">anno di nascita</tspan>
    <tspan x="839.742" y="191.683">punteggio**</tspan>
    <tspan x="839.742" y="207.683">numero viaggi</tspan>
    <tspan x="839.742" y="223.683">fumo, parlare, musica,animali</tspan>
  </text>
  <g>
    <rect style="fill: #ffffff" x="707.742" y="48.3496" width="105" height="36"/>
    <rect style="fill: none; fill-opacity:0; stroke-width: 2; stroke: #000000" x="707.742" y="48.3496" width="105" height="36"/>
    <text font-size="12.8" style="fill: #000000;text-anchor:middle;font-family:monospace;font-style:normal;font-weight:normal" x="760.242" y="70.3496">recensioni</text>
  </g>
  <line style="fill: none; fill-opacity:0; stroke-width: 2; stroke: #000000" x1="760.205" y1="85.3446" x2="760.137" y2="119.899"/>
  <g>
    <line style="fill: none; fill-opacity:0; stroke-width: 2; stroke: #000000" x1="789.074" y1="47.0162" x2="793.074" y2="12.3495"/>
    <path style="fill: #000000" d="M 793.074 12.3495 C 795.558,12.6361 797.754,15.4062 797.468,17.8897 C 797.181,20.3732 794.411,22.5702 791.928,22.2836 C 789.444,21.9971 787.247,19.227 787.534,16.7435 C 787.82,14.2599 790.59,12.063 793.074,12.3495z"/>
    <path style="fill: none; fill-opacity:0; stroke-width: 2; stroke: #000000" d="M 793.074 12.3495 C 795.558,12.6361 797.754,15.4062 797.468,17.8897 C 797.181,20.3732 794.411,22.5702 791.928,22.2836 C 789.444,21.9971 787.247,19.227 787.534,16.7435 C 787.82,14.2599 790.59,12.063 793.074,12.3495"/>
  </g>
  <text font-size="12.8" style="fill: #000000;text-anchor:start;font-family:sans-serif;font-style:normal;font-weight:normal" x="803.074" y="4.34954">
    <tspan x="803.074" y="4.34954">mittente</tspan>
    <tspan x="803.074" y="20.3495">punteggio</tspan>
    <tspan x="803.074" y="36.3495">commento</tspan>
  </text>
  <g>
    <line style="fill: none; fill-opacity:0; stroke-width: 2; stroke: #000000" x1="594.915" y1="63.9943" x2="593.742" y2="33.6828"/>
    <path style="fill: #000000" d="M 593.742 33.6828 C 596.24,33.5862 598.835,35.9876 598.932,38.4858 C 599.028,40.9839 596.627,43.5787 594.129,43.6753 C 591.63,43.772 589.036,41.3705 588.939,38.8724 C 588.842,36.3742 591.244,33.7794 593.742,33.6828z"/>
    <path style="fill: none; fill-opacity:0; stroke-width: 2; stroke: #000000" d="M 593.742 33.6828 C 596.24,33.5862 598.835,35.9876 598.932,38.4858 C 599.028,40.9839 596.627,43.5787 594.129,43.6753 C 591.63,43.772 589.036,41.3705 588.939,38.8724 C 588.842,36.3742 591.244,33.7794 593.742,33.6828"/>
  </g>
  <text font-size="12.8" style="fill: #000000;text-anchor:start;font-family:sans-serif;font-style:normal;font-weight:normal" x="570.286" y="7.68286">
    <tspan x="570.286" y="7.68286">automobile</tspan>
    <tspan x="570.286" y="23.6829">punteggi di guida</tspan>
  </text>
  <g>
    <line style="fill: none; fill-opacity:0; stroke-width: 2; stroke: #000000" x1="219.074" y1="106.35" x2="211.742" y2="83.6828"/>
    <path style="fill: #000000" d="M 211.742 83.6828 C 214.121,82.9134 217.269,84.5226 218.038,86.9013 C 218.808,89.2799 217.198,92.428 214.82,93.1974 C 212.441,93.9668 209.293,92.3576 208.524,89.9789 C 207.754,87.6003 209.363,84.4522 211.742,83.6828z"/>
    <path style="fill: none; fill-opacity:0; stroke-width: 2; stroke: #000000" d="M 211.742 83.6828 C 214.121,82.9134 217.269,84.5226 218.038,86.9013 C 218.808,89.2799 217.198,92.428 214.82,93.1974 C 212.441,93.9668 209.293,92.3576 208.524,89.9789 C 207.754,87.6003 209.363,84.4522 211.742,83.6828"/>
  </g>
  <text font-size="12.8" style="fill: #000000;text-anchor:start;font-family:sans-serif;font-style:normal;font-weight:normal" x="185.075" y="76.3496">
    <tspan x="185.075" y="76.3496">bagaglio</tspan>
  </text>
  <g>
    <line style="fill: none; fill-opacity:0; stroke-width: 2; stroke: #000000" x1="864.408" y1="307.682" x2="914.408" y2="287.016"/>
    <path style="fill: #000000" d="M 914.408 287.016 C 915.363,289.326 914.007,292.592 911.697,293.547 C 909.387,294.502 906.121,293.146 905.166,290.836 C 904.211,288.525 905.567,285.26 907.877,284.305 C 910.188,283.35 913.453,284.706 914.408,287.016z"/>
    <path style="fill: none; fill-opacity:0; stroke-width: 2; stroke: #000000" d="M 914.408 287.016 C 915.363,289.326 914.007,292.592 911.697,293.547 C 909.387,294.502 906.121,293.146 905.166,290.836 C 904.211,288.525 905.567,285.26 907.877,284.305 C 910.188,283.35 913.453,284.706 914.408,287.016"/>
  </g>
  <text font-size="12.8" style="fill: #000000;text-anchor:start;font-family:sans-serif;font-style:normal;font-weight:normal" x="864.408" y="275.682">
    <tspan x="864.408" y="275.682">ID numerico ordinato</tspan>
  </text>
  <g>
    <line style="fill: none; fill-opacity:0; stroke-width: 2; stroke: #000000" x1="30.2874" y1="282.978" x2="-12.2583" y2="301.016"/>
    <path style="fill: #000000" d="M -12.2583 301.016 C -13.2342,298.714 -11.9083,295.437 -9.60666,294.461 C -7.30498,293.485 -4.02746,294.811 -3.05162,297.113 C -2.07578,299.414 -3.40162,302.692 -5.7033,303.668 C -8.00498,304.644 -11.2825,303.318 -12.2583,301.016z"/>
    <path style="fill: none; fill-opacity:0; stroke-width: 2; stroke: #000000" d="M -12.2583 301.016 C -13.2342,298.714 -11.9083,295.437 -9.60666,294.461 C -7.30498,293.485 -4.02746,294.811 -3.05162,297.113 C -2.07578,299.414 -3.40162,302.692 -5.7033,303.668 C -8.00498,304.644 -11.2825,303.318 -12.2583,301.016"/>
  </g>
  <text font-size="12.8" style="fill: #000000;text-anchor:start;font-family:sans-serif;font-style:normal;font-weight:normal" x="-82.8584" y="322.116">
    <tspan x="-82.8584" y="322.116">ID numerico ordinato</tspan>
  </text>
  <g>
    <line style="fill: none; fill-opacity:0; stroke-width: 2; stroke: #000000" x1="861.405" y1="319.444" x2="919.742" y2="327.016"/>
    <path style="fill: #000000" d="M 919.742 327.016 C 919.42,329.495 916.619,331.653 914.14,331.331 C 911.661,331.009 909.503,328.208 909.825,325.729 C 910.147,323.25 912.948,321.092 915.427,321.414 C 917.906,321.736 920.064,324.537 919.742,327.016z"/>
    <path style="fill: none; fill-opacity:0; stroke-width: 2; stroke: #000000" d="M 919.742 327.016 C 919.42,329.495 916.619,331.653 914.14,331.331 C 911.661,331.009 909.503,328.208 909.825,325.729 C 910.147,323.25 912.948,321.092 915.427,321.414 C 917.906,321.736 920.064,324.537 919.742,327.016"/>
  </g>
  <text font-size="12.8" style="fill: #000000;text-anchor:start;font-family:sans-serif;font-style:normal;font-weight:normal" x="917.142" y="317.45">
    <tspan x="917.142" y="317.45">mittente</tspan>
  </text>
  <g>
    <line style="fill: none; fill-opacity:0; stroke-width: 2; stroke: #000000" x1="239.172" y1="107.621" x2="253.328" y2="47.9512"/>
    <path style="fill: #000000" d="M 253.328 47.9512 C 255.76,48.5283 257.616,51.5378 257.039,53.9703 C 256.462,56.4028 253.452,58.2582 251.02,57.6811 C 248.587,57.1041 246.732,54.0945 247.309,51.662 C 247.886,49.2295 250.896,47.3741 253.328,47.9512z"/>
    <path style="fill: none; fill-opacity:0; stroke-width: 2; stroke: #000000" d="M 253.328 47.9512 C 255.76,48.5283 257.616,51.5378 257.039,53.9703 C 256.462,56.4028 253.452,58.2582 251.02,57.6811 C 248.587,57.1041 246.732,54.0945 247.309,51.662 C 247.886,49.2295 250.896,47.3741 253.328,47.9512"/>
  </g>
  <text font-size="12.8" style="fill: #000000;text-anchor:start;font-family:sans-serif;font-style:normal;font-weight:normal" x="233.53" y="34.5162">
    <tspan x="233.53" y="34.5162">num posti offerti</tspan>
  </text>
  <g>
    <line style="fill: none; fill-opacity:0; stroke-width: 2; stroke: #000000" x1="546.327" y1="432.004" x2="576.476" y2="460.902"/>
    <path style="fill: #000000" d="M 576.476 460.902 C 574.746,462.707 571.211,462.782 569.407,461.052 C 567.602,459.322 567.527,455.787 569.257,453.982 C 570.987,452.177 574.521,452.103 576.326,453.833 C 578.131,455.562 578.206,459.097 576.476,460.902z"/>
    <path style="fill: none; fill-opacity:0; stroke-width: 2; stroke: #000000" d="M 576.476 460.902 C 574.746,462.707 571.211,462.782 569.407,461.052 C 567.602,459.322 567.527,455.787 569.257,453.982 C 570.987,452.177 574.521,452.103 576.326,453.833 C 578.131,455.562 578.206,459.097 576.476,460.902"/>
  </g>
  <g>
    <line style="fill: none; fill-opacity:0; stroke-width: 2; stroke: #000000" x1="489.964" y1="431.977" x2="450.612" y2="452.416"/>
    <path style="fill: #000000" d="M 450.612 452.416 C 449.46,450.197 450.526,446.826 452.745,445.674 C 454.963,444.522 458.334,445.588 459.486,447.807 C 460.639,450.025 459.572,453.396 457.354,454.549 C 455.135,455.701 451.764,454.635 450.612,452.416z"/>
    <path style="fill: none; fill-opacity:0; stroke-width: 2; stroke: #000000" d="M 450.612 452.416 C 449.46,450.197 450.526,446.826 452.745,445.674 C 454.963,444.522 458.334,445.588 459.486,447.807 C 460.639,450.025 459.572,453.396 457.354,454.549 C 455.135,455.701 451.764,454.635 450.612,452.416"/>
  </g>
  <text font-size="12.8" style="fill: #000000;text-anchor:start;font-family:sans-serif;font-style:normal;font-weight:normal" x="423.742" y="466.558">
    <tspan x="423.742" y="466.558">testo</tspan>
  </text>
  <text font-size="12.8" style="fill: #000000;text-anchor:start;font-family:sans-serif;font-style:normal;font-weight:normal" x="541.828" y="475.75">
    <tspan x="541.828" y="475.75">punteggi delle varie voci</tspan>
  </text>
</svg>
